<svg width="146.000000" height="35.000000" viewBox="0 0 146 35" fill="none" xmlns="http://www.w3.org/2000/svg" xmlns:xlink="http://www.w3.org/1999/xlink">
	<defs/>
	<path d="M17.5 0L15.03 9.1L8.03 2.77L10.88 11.77L1.58 10.23L8.83 16.25L0.17 19.99L9.54 21.13L4.27 28.96L12.76 24.86L12.56 34.29L17.5 26.25L22.43 34.29L22.23 24.86L30.72 28.96L25.45 21.13L34.82 19.99L26.16 16.25L33.41 10.23L24.11 11.77L26.96 2.77L19.96 9.1L17.5 0Z" fill="#598D66" fill-opacity="1.000000" fill-rule="evenodd"/>
	<path d="M66.12 19.97L69.17 24.5L72.04 24.5L67.86 18.47L71.76 14.04L68.92 14.04L64.7 18.73L64.7 9.9L62.02 9.9L62.02 24.5L64.7 24.5L64.7 21.37L66.12 19.97ZM44.47 10.3L44.47 24.5L47.23 24.5L47.23 10.3L44.47 10.3ZM94.67 24.5L94.67 10.3L91.93 10.3L91.93 16.03L85.49 16.03L85.49 10.3L82.73 10.3L82.73 24.5L85.49 24.5L85.49 18.44L91.93 18.44L91.93 24.5L94.67 24.5ZM123.57 24.44Q124.52 24.7 125.53 24.7Q127.46 24.7 128.6 23.82Q129.05 23.47 129.32 23.01Q129.74 22.32 129.74 21.37Q129.74 20.41 129.29 19.87Q128.85 19.31 127.98 18.93Q127.12 18.55 125.86 18.2Q125.24 18 124.81 17.83Q124.38 17.67 124.17 17.46Q124.14 17.44 124.12 17.41Q123.96 17.21 123.96 16.87Q123.96 16.5 124.14 16.27Q124.16 16.25 124.19 16.22Q124.42 15.99 124.79 15.9Q125.16 15.79 125.58 15.79Q125.7 15.79 125.82 15.8Q126.43 15.84 127.03 16.09Q127.76 16.37 128.56 17L129.64 15.3Q128.93 14.62 128.08 14.27Q127.95 14.22 127.81 14.17Q126.82 13.82 125.69 13.82Q124.42 13.82 123.46 14.24Q122.61 14.61 122.1 15.26Q122.04 15.33 121.98 15.41Q121.9 15.53 121.83 15.66Q121.46 16.32 121.46 17.2Q121.46 18.05 121.85 18.61Q122.24 19.15 123.01 19.51Q123.8 19.88 124.96 20.26Q125.66 20.46 126.14 20.62Q126.64 20.77 126.9 20.98Q126.98 21.05 127.04 21.14Q127.15 21.32 127.15 21.58Q127.15 21.87 127.02 22.09Q126.91 22.28 126.69 22.41Q126.22 22.69 125.44 22.69Q124.6 22.69 123.68 22.34Q122.77 21.98 121.84 21.21L120.88 22.96Q121.06 23.13 121.25 23.29Q122.01 23.91 122.98 24.26Q123.27 24.36 123.57 24.44ZM57 24.5L59.68 24.5L59.68 17.96Q59.68 17.2 59.55 16.46Q59.41 15.72 59.08 15.12Q58.98 14.95 58.86 14.79Q58.57 14.43 58.12 14.19Q57.49 13.84 56.51 13.84Q55.61 13.84 54.8 14.08Q53.99 14.33 53.37 14.81Q53.12 15 52.9 15.23Q52.59 15.55 52.35 15.96L52.35 14.02L49.94 14.02L49.94 24.5L52.62 24.5L52.62 18.38Q52.74 17.99 52.95 17.65Q53.08 17.44 53.26 17.25Q53.7 16.76 54.24 16.48Q54.79 16.19 55.34 16.19Q55.8 16.19 56.14 16.39Q56.38 16.54 56.56 16.78Q57 17.36 57 18.62L57 24.5ZM99.73 24.27Q100.76 24.7 102.04 24.7Q103.31 24.7 104.33 24.27Q105.22 23.89 105.88 23.27Q105.97 23.18 106.06 23.08Q106.4 22.72 106.66 22.31Q106.95 21.85 107.14 21.34Q107.25 21.06 107.32 20.77Q107.51 20.05 107.51 19.28Q107.51 18.34 107.25 17.49Q107.2 17.34 107.14 17.2Q106.96 16.7 106.68 16.26Q106.41 15.83 106.05 15.46Q105.9 15.29 105.73 15.14Q105.12 14.6 104.33 14.27Q103.31 13.84 102.04 13.84Q100.76 13.84 99.73 14.27Q98.88 14.62 98.24 15.22Q98.12 15.33 98 15.46Q97.72 15.75 97.5 16.08Q97.14 16.6 96.91 17.2Q96.85 17.36 96.8 17.53Q96.54 18.36 96.54 19.28Q96.54 20.03 96.72 20.73Q96.8 21.04 96.91 21.34Q97.14 21.91 97.47 22.41Q97.71 22.76 98 23.08Q98.1 23.19 98.21 23.29Q98.86 23.9 99.73 24.27ZM134.13 24.27Q135.15 24.7 136.41 24.7Q137.58 24.7 138.53 24.35Q139.5 24 140.2 23.38Q140.83 22.84 141.19 22.16Q141.25 22.06 141.3 21.96L139 21.32Q138.95 21.42 138.9 21.52Q138.62 22.02 138.03 22.35Q137.64 22.56 137.24 22.65Q136.89 22.74 136.52 22.74Q136.07 22.74 135.67 22.61Q135.43 22.54 135.2 22.43Q135 22.32 134.82 22.19Q134.46 21.92 134.2 21.52Q133.82 20.92 133.73 20.12L141.83 20.12Q141.85 19.95 141.87 19.7Q141.89 19.46 141.89 19.22Q141.89 18.38 141.67 17.6Q141.51 17.07 141.24 16.57Q140.98 16.07 140.63 15.66Q140.11 15.04 139.37 14.59Q138.16 13.84 136.43 13.84Q134.74 13.84 133.5 14.58L133.48 14.59Q132.71 15.05 132.17 15.7Q131.82 16.1 131.57 16.58Q131.4 16.88 131.28 17.2Q130.9 18.18 130.9 19.31Q130.9 20.09 131.1 20.82Q131.17 21.1 131.28 21.37Q131.5 21.9 131.81 22.37Q132.07 22.75 132.39 23.09Q132.47 23.18 132.56 23.26Q133.23 23.89 134.13 24.27ZM109.21 14.02L109.21 20.57Q109.21 22.6 110.05 23.65Q110.27 23.92 110.54 24.12Q111.32 24.7 112.51 24.7Q113.64 24.7 114.6 24.3Q114.77 24.23 114.94 24.15Q115.36 23.94 115.72 23.65Q116.3 23.19 116.73 22.54L116.8 23.38Q116.84 23.7 117 23.95Q117.13 24.14 117.32 24.29Q117.77 24.62 118.5 24.62Q118.72 24.62 118.98 24.58Q119.26 24.55 119.65 24.5L119.65 22.32Q119.32 22.27 119.16 22.1Q119.01 21.92 119.01 21.5L119.01 14.02L116.34 14.02L116.34 20.52Q116.03 21.16 115.61 21.58Q115.18 22 114.66 22.21Q114.21 22.39 113.76 22.41Q113.7 22.41 113.64 22.41Q113.06 22.41 112.68 22.15Q112.48 22.01 112.33 21.8Q111.89 21.19 111.89 19.99L111.89 14.02L109.21 14.02ZM139.15 18.42L133.67 18.42Q133.75 17.62 134.12 17.02Q134.36 16.65 134.68 16.38Q134.87 16.23 135.09 16.11Q135.25 16.01 135.42 15.95Q135.88 15.77 136.39 15.77Q137.01 15.77 137.52 16Q137.63 16.05 137.73 16.11Q137.99 16.24 138.2 16.43Q138.49 16.68 138.7 17.02Q139.08 17.62 139.15 18.42ZM99.65 20.91Q99.3 20.19 99.3 19.28Q99.3 18.36 99.65 17.65Q99.93 17.1 100.36 16.73Q100.49 16.62 100.63 16.53Q100.85 16.38 101.09 16.29Q101.53 16.12 102.04 16.12Q102.49 16.12 102.9 16.26Q103.17 16.36 103.42 16.52Q103.52 16.58 103.62 16.66Q104.1 17.04 104.4 17.64Q104.42 17.67 104.44 17.71Q104.77 18.4 104.77 19.26Q104.77 20.17 104.4 20.89Q104.12 21.43 103.69 21.8Q103.56 21.91 103.42 22Q103.15 22.18 102.86 22.28Q102.47 22.41 102.04 22.41Q101.51 22.41 101.05 22.23Q100.83 22.14 100.63 22.01Q100.49 21.92 100.36 21.81Q99.93 21.45 99.65 20.91ZM73.12 21.61L73.12 24.5L75.31 24.5L75.31 21.61L73.12 21.61Z" fill="#598D66" fill-opacity="1.000000" fill-rule="evenodd"/>
</svg>
