<svg width="20" height="20" viewBox="0 0 20 20" fill="none" xmlns="http://www.w3.org/2000/svg">
<path d="M13.7499 4.99992V14.5833C13.7499 15.4673 13.3987 16.3152 12.7736 16.9403C12.1485 17.5654 11.3006 17.9166 10.4166 17.9166C9.53253 17.9166 8.68468 17.5654 8.05956 16.9403C7.43444 16.3152 7.08325 15.4673 7.08325 14.5833V4.16658C7.08325 3.61405 7.30275 3.08415 7.69345 2.69345C8.08415 2.30275 8.61405 2.08325 9.16658 2.08325C9.71912 2.08325 10.249 2.30275 10.6397 2.69345C11.0304 3.08415 11.2499 3.61405 11.2499 4.16658V12.9166C11.2499 13.1376 11.1621 13.3496 11.0058 13.5058C10.8496 13.6621 10.6376 13.7499 10.4166 13.7499C10.1956 13.7499 9.98361 13.6621 9.82733 13.5058C9.67105 13.3496 9.58325 13.1376 9.58325 12.9166V4.99992H8.33325V12.9166C8.33325 13.4691 8.55275 13.999 8.94345 14.3897C9.33415 14.7804 9.86405 14.9999 10.4166 14.9999C10.9691 14.9999 11.499 14.7804 11.8897 14.3897C12.2804 13.999 12.4999 13.4691 12.4999 12.9166V4.16658C12.4999 3.28253 12.1487 2.43468 11.5236 1.80956C10.8985 1.18444 10.0506 0.833252 9.16658 0.833252C8.28253 0.833252 7.43468 1.18444 6.80956 1.80956C6.18444 2.43468 5.83325 3.28253 5.83325 4.16658V14.5833C5.83325 15.7988 6.31614 16.9646 7.17568 17.8242C8.03522 18.6837 9.20101 19.1666 10.4166 19.1666C11.6322 19.1666 12.7979 18.6837 13.6575 17.8242C14.517 16.9646 14.9999 15.7988 14.9999 14.5833V4.99992H13.7499Z" fill="#598D66"/>
</svg>
