<svg width="11.328857" height="11.328857" viewBox="0 0 11.3289 11.3289" fill="none" xmlns="http://www.w3.org/2000/svg" xmlns:xlink="http://www.w3.org/1999/xlink">
	<defs/>
	<path id="Vector" d="M11.11 1.25C11.18 1.18 11.23 1.1 11.27 1.01C11.3 0.92 11.32 0.82 11.32 0.73C11.32 0.63 11.31 0.54 11.27 0.45C11.23 0.36 11.18 0.28 11.11 0.21C11.04 0.14 10.96 0.09 10.87 0.05C10.78 0.01 10.69 0 10.59 0C10.5 0 10.4 0.01 10.31 0.05C10.22 0.09 10.14 0.14 10.07 0.21L5.66 4.62L1.25 0.21C1.11 0.07 0.92 0 0.73 0C0.53 0 0.35 0.07 0.21 0.21C0.07 0.35 0 0.53 0 0.73C0 0.92 0.07 1.11 0.21 1.25L4.62 5.66L0.21 10.07C0.14 10.14 0.09 10.22 0.05 10.31C0.01 10.4 0 10.5 0 10.59C0 10.69 0.01 10.78 0.05 10.87C0.09 10.96 0.14 11.04 0.21 11.11C0.35 11.25 0.53 11.32 0.73 11.32C0.82 11.32 0.92 11.3 1.01 11.27C1.1 11.23 1.18 11.18 1.25 11.11L5.66 6.69L10.07 11.11C10.21 11.25 10.4 11.32 10.59 11.32C10.79 11.32 10.97 11.25 11.11 11.11C11.25 10.97 11.32 10.79 11.32 10.59C11.32 10.4 11.25 10.21 11.11 10.07L6.69 5.66L11.11 1.25Z" fill="#2C2D35" fill-opacity="1.000000" fill-rule="evenodd"/>
</svg>
