<svg width="24.000000" height="24.000000" viewBox="0 0 24 24" fill="none" xmlns="http://www.w3.org/2000/svg" xmlns:xlink="http://www.w3.org/1999/xlink">
	<defs>
		<clipPath id="clip42705_4018">
			<rect id="phone" width="24.000000" height="24.000000" fill="white" fill-opacity="0"/>
		</clipPath>
	</defs>
	<rect id="phone" width="24.000000" height="24.000000" fill="#FFFFFF" fill-opacity="0"/>
	<g clip-path="url(#clip42705_4018)">
		<path id="primary" d="M21 18.93C21 19.21 20.94 19.5 20.82 19.76C20.7 20.03 20.53 20.26 20.31 20.45C20.09 20.64 19.84 20.78 19.56 20.86C19.28 20.95 18.99 20.97 18.7 20.93C14.74 20.42 11.06 18.6 8.24 15.77C5.42 12.94 3.63 9.25 3.14 5.29C3.09 5 3.11 4.71 3.19 4.43C3.28 4.16 3.42 3.9 3.6 3.68C3.79 3.47 4.03 3.29 4.29 3.17C4.55 3.05 4.84 2.99 5.13 3L9 3C9.24 2.99 9.48 3.08 9.67 3.25C9.85 3.41 9.97 3.64 10 3.89C10.09 5.2 10.43 6.48 11 7.67C11.09 7.89 11.1 8.14 11.02 8.37C10.95 8.61 10.79 8.8 10.58 8.93L9.72 9.42C9.59 9.48 9.48 9.58 9.4 9.69C9.31 9.8 9.25 9.93 9.22 10.07C9.19 10.21 9.19 10.35 9.22 10.49C9.25 10.63 9.3 10.76 9.39 10.88C10.37 12.32 11.63 13.58 13.08 14.57C13.19 14.65 13.32 14.7 13.46 14.73C13.6 14.76 13.74 14.76 13.88 14.73C14.02 14.7 14.15 14.64 14.26 14.55C14.37 14.47 14.47 14.36 14.54 14.24L15.03 13.38C15.15 13.16 15.36 13 15.6 12.93C15.84 12.86 16.1 12.88 16.33 13C17.51 13.56 18.79 13.9 20.11 14C20.35 14.02 20.58 14.14 20.74 14.32C20.91 14.51 21 14.75 21 15L21 18.93Z" stroke="#2C2D35" stroke-opacity="1.000000" stroke-width="2.000000" stroke-linejoin="round"/>
	</g>
</svg>
